<svg xmlns="http://www.w3.org/2000/svg" viewBox="0 0 1861 1861" width="1861" height="1861" role="img" aria-label="CodeZaiku">
  <title>CodeZaiku</title>
  <defs>
    <linearGradient id="cp" x1="0" y1="0" x2="1" y2="0">
      <stop offset="0.0000" stop-color="#055c65"/>
      <stop offset="0.2500" stop-color="#1e757f"/>
      <stop offset="0.5000" stop-color="#3a306f"/>
      <stop offset="0.7500" stop-color="#7231a5"/>
      <stop offset="1.0000" stop-color="#a14fd8"/>
    </linearGradient>
    <radialGradient id="glow" cx="0.5" cy="0.5" r="0.5">
      <stop offset="0" stop-color="#8f3fb8" stop-opacity="0.66"/>
      <stop offset="0.32" stop-color="#7f2fa8" stop-opacity="0.52"/>
      <stop offset="0.66" stop-color="#6a2494" stop-opacity="0.26"/>
      <stop offset="1" stop-color="#5a1f80" stop-opacity="0"/>
    </radialGradient>
    <linearGradient id="cp-d" x1="0" y1="0" x2="1" y2="0">
      <stop offset="0.0000" stop-color="#2495a0"/>
      <stop offset="0.2500" stop-color="#3c9ca7"/>
      <stop offset="0.5000" stop-color="#6357a4"/>
      <stop offset="0.7500" stop-color="#894abb"/>
      <stop offset="1.0000" stop-color="#a75ed8"/>
    </linearGradient>
    <radialGradient id="glow-d" cx="0.5" cy="0.5" r="0.5">
      <stop offset="0" stop-color="#dda2ff" stop-opacity="0.97"/>
      <stop offset="0.18" stop-color="#bb6bf5" stop-opacity="0.80"/>
      <stop offset="0.46" stop-color="#9433d8" stop-opacity="0.50"/>
      <stop offset="0.76" stop-color="#6f22b0" stop-opacity="0.20"/>
      <stop offset="1" stop-color="#5a1f80" stop-opacity="0"/>
    </radialGradient>
  </defs>
  <style>
    .glow-d { display: none; }
    @media (prefers-color-scheme: dark) {
      .ribbon { fill: url(#cp-d); }
      .glow-l { display: none; }
      .glow-d { display: block; }
    }
  </style>
<g class="ribbon" transform="translate(100,469)"><g transform="translate(0.000000,924.000000) scale(0.100000,-0.100000)"
fill="url(#cp)" stroke="none">
<path d="M11795 9050 c-378 -32 -677 -107 -1038 -261 -250 -107 -432 -205
-674 -364 -528 -348 -1050 -799 -1590 -1377 -102 -109 -189 -198 -193 -198 -5
0 -75 73 -157 162 -693 759 -1421 1368 -1928 1614 -238 115 -437 168 -685 180
-571 28 -1107 -204 -1596 -691 -208 -207 -318 -345 -274 -345 5 0 65 27 132
59 232 113 409 160 633 168 l150 5 114 -16 c197 -29 441 -104 721 -221 214
-89 650 -370 900 -579 214 -179 574 -522 796 -758 326 -346 424 -459 424 -485
0 -23 -297 -385 -337 -410 l-21 -14 -73 78 c-635 678 -1345 1259 -1894 1549
-114 60 -369 179 -485 226 -261 105 -592 188 -835 208 -109 9 -348 0 -386 -15
-41 -16 -203 -326 -312 -601 -74 -184 -133 -388 -128 -441 l1 -13 208 0 c280
0 443 -25 707 -105 617 -188 1158 -531 1870 -1185 136 -125 548 -550 568 -586
4 -8 5 -24 2 -35 -4 -12 -98 -119 -210 -238 -434 -464 -867 -841 -1296 -1129
-157 -106 -475 -279 -639 -349 -242 -102 -519 -183 -745 -218 -143 -22 -408
-30 -540 -16 -467 51 -885 249 -1179 561 -162 172 -279 339 -365 520 -146 310
-211 595 -211 930 0 487 142 905 444 1306 l46 62 21 118 c61 358 182 767 328
1106 39 92 71 171 71 177 0 30 -34 20 -225 -66 -513 -230 -966 -623 -1267
-1098 -143 -226 -294 -571 -358 -818 -35 -132 -73 -338 -92 -492 -17 -142 -17
-575 0 -715 81 -654 344 -1234 784 -1727 203 -228 493 -455 763 -599 283 -151
707 -281 1068 -329 728 -95 1415 23 2168 373 426 198 942 563 1449 1028 158
145 516 503 649 652 49 54 82 82 96 82 l21 0 135 -171 c151 -193 199 -258 199
-269 0 -43 -637 -706 -975 -1015 -245 -224 -369 -328 -593 -496 -233 -175
-316 -228 -495 -314 -331 -160 -579 -225 -852 -225 -304 1 -551 71 -815 232
l-65 40 -130 -13 c-160 -17 -540 -17 -695 -1 -149 16 -316 46 -458 83 -132 34
-128 33 -135 15 -20 -52 228 -373 487 -631 521 -519 1164 -785 1896 -785 875
0 1691 390 2710 1294 164 146 624 607 752 754 119 136 153 172 167 172 5 0 43
-39 83 -88 40 -48 125 -141 188 -207 63 -66 143 -152 177 -190 34 -39 153
-156 265 -262 723 -682 1349 -1084 1858 -1194 l105 -23 205 0 205 -1 109 24
c144 30 347 100 471 162 110 55 310 186 420 274 178 142 465 439 465 480 l0
17 -22 -5 c-13 -3 -59 -21 -103 -41 -161 -71 -385 -117 -580 -118 -317 -1
-603 78 -1030 287 -206 100 -373 206 -625 394 -436 325 -945 803 -1327 1246
l-104 120 3 22 c2 13 79 113 171 223 l168 200 21 0 c13 0 105 -85 267 -248
726 -732 1303 -1177 1931 -1491 279 -139 474 -209 835 -300 220 -56 522 -94
563 -72 42 22 216 340 317 576 61 143 167 460 163 488 l-3 22 -170 7 c-415 15
-736 98 -1146 295 -562 270 -1189 757 -1826 1419 -101 104 -173 187 -173 198
0 23 24 49 284 320 304 317 625 603 946 842 606 453 1183 709 1775 789 159 22
439 22 560 0 314 -56 599 -173 820 -338 151 -112 356 -331 461 -492 155 -240
278 -570 330 -890 22 -134 24 -397 5 -535 -17 -123 -80 -373 -120 -472 -70
-178 -178 -361 -296 -503 -31 -38 -61 -79 -66 -90 -4 -11 -27 -114 -49 -230
-49 -245 -95 -437 -152 -625 -40 -133 -161 -460 -212 -574 -14 -32 -26 -67
-26 -78 l0 -20 31 6 c56 11 211 77 347 147 389 200 722 484 991 844 133 177
189 268 281 456 130 265 206 493 260 779 95 509 87 951 -25 1408 -143 581
-402 1060 -780 1438 -157 157 -238 225 -405 340 -332 228 -652 371 -1030 462
-600 144 -1282 98 -1974 -133 -570 -191 -1242 -606 -1926 -1191 -63 -54 -264
-246 -446 -426 -207 -206 -338 -328 -350 -328 -11 0 -38 24 -64 58 -25 31
-103 128 -173 214 -70 87 -127 163 -127 168 0 15 163 191 487 525 825 851
1500 1320 2123 1475 155 39 247 50 403 50 278 0 511 -66 757 -215 l110 -66
112 15 c350 46 739 21 1086 -69 72 -19 134 -35 137 -35 17 0 -1 54 -41 124
-181 317 -515 670 -829 878 -149 98 -442 244 -597 297 -136 46 -310 87 -458
107 -136 18 -435 25 -575 14z m-3270 -4232 c128 -120 195 -190 195 -203 0 -23
-381 -385 -405 -385 -24 0 -405 362 -405 385 0 23 381 385 405 385 8 0 103
-82 210 -182z"/>
<path d="M4395 9039 c-392 -40 -756 -160 -1085 -359 -309 -186 -603 -476 -831
-820 -231 -347 -447 -847 -563 -1300 -112 -439 -168 -775 -201 -1195 -45 -592
-42 -963 16 -1480 20 -185 72 -515 90 -572 10 -30 96 -115 209 -205 252 -200
603 -343 922 -376 87 -9 102 -3 87 36 -6 15 -32 110 -60 212 -210 784 -276
1873 -164 2725 91 693 241 1232 461 1655 151 290 235 417 411 617 397 454 822
735 1290 854 149 38 262 52 415 53 l128 1 0 12 c0 18 -198 79 -350 108 -225
42 -555 57 -775 34z"/>
<path d="M13584 6476 c-3 -8 6 -51 20 -97 139 -461 234 -1138 252 -1799 19
-692 -99 -1499 -311 -2135 -118 -352 -242 -608 -441 -907 -151 -228 -235 -331
-418 -513 -147 -147 -343 -302 -516 -410 -234 -145 -602 -267 -852 -282 l-108
-6 0 -13 c0 -15 122 -57 247 -84 393 -85 841 -70 1254 44 555 153 1063 519
1414 1021 178 254 306 517 440 900 115 332 152 469 229 870 135 701 171 1467
100 2145 -21 205 -50 424 -75 573 l-22 129 -36 44 c-46 57 -192 179 -297 249
-114 76 -194 118 -310 164 -219 87 -554 150 -570 107z"/>
</g></g>
  <circle class="glow glow-l" cx="930.7" cy="930.7" r="521.2" fill="url(#glow)"/>
  <circle class="glow glow-d" cx="930.7" cy="930.7" r="558.4" fill="url(#glow-d)"/>
</svg>
